<?xml version="1.0" encoding="UTF-8"?>
<svg width="70px" height="70px" viewBox="0 0 70 70" version="1.1" xmlns="http://www.w3.org/2000/svg" xmlns:xlink="http://www.w3.org/1999/xlink">
    <!-- Generator: Sketch 57.1 (83088) - https://sketch.com -->
    <title>Icon/Big/HighSun</title>
    <desc>Created with Sketch.</desc>
    <g id="assets" stroke="none" stroke-width="1" fill="none" fill-rule="evenodd">
        <g id="styleguide" transform="translate(-126.000000, -711.000000)" fill="#FFFFFF">
            <g id="Icon/Big/HighSun" transform="translate(126.000000, 711.000000)">
                <g id="Group-12" transform="translate(0.000000, 1.000000)">
                    <path d="M35.8860759,56.5949367 L35.8860759,69 L34.1139241,69 L34.1139241,56.5949367 L35.8860759,56.5949367 Z M52.4898987,48.4649241 L61.2611646,57.2361899 L60.0082532,58.4891013 L51.2369873,49.7178354 L52.4898987,48.4649241 Z M18.3961772,48.4649241 L19.6490886,49.7178354 L10.8778228,58.4891013 L9.62491139,57.2361899 L18.3961772,48.4649241 Z M35,14.9493671 C45.0162025,14.9493671 53.164557,23.0977215 53.164557,33.1139241 C53.164557,43.1301266 45.0162025,51.278481 35,51.278481 C24.9837975,51.278481 16.835443,43.1301266 16.835443,33.1139241 C16.835443,23.0977215 24.9837975,14.9493671 35,14.9493671 Z M35,16.721519 C25.9611392,16.721519 18.6075949,24.0750633 18.6075949,33.1139241 C18.6075949,42.1527848 25.9611392,49.5063291 35,49.5063291 C44.0388608,49.5063291 51.3924051,42.1527848 51.3924051,33.1139241 C51.3924051,24.0750633 44.0388608,16.721519 35,16.721519 Z M12.4050633,33.1139241 L12.4050633,34.8860759 L0,34.8860759 L0,33.1139241 L12.4050633,33.1139241 Z M70,33.1139241 L70,34.8860759 L57.5949367,34.8860759 L57.5949367,33.1139241 L70,33.1139241 Z M11.7641646,7.73918987 L20.5354304,16.5104557 L19.282519,17.7633671 L10.5112532,8.99210127 L11.7641646,7.73918987 Z M59.1219114,7.73918987 L60.3748228,8.99210127 L51.603557,17.7633671 L50.3506456,16.5104557 L59.1219114,7.73918987 Z M35.8860759,-1 L35.8860759,11.4050633 L34.1139241,11.4050633 L34.1139241,-1 L35.8860759,-1 Z" id="Combined-Shape"></path>
                </g>
            </g>
        </g>
    </g>
</svg>