<?xml version="1.0" encoding="UTF-8"?>
<svg width="57px" height="57px" viewBox="0 0 57 57" version="1.1" xmlns="http://www.w3.org/2000/svg" xmlns:xlink="http://www.w3.org/1999/xlink">
    <!-- Generator: Sketch 57.1 (83088) - https://sketch.com -->
    <title>Icon/Big/NoSun</title>
    <desc>Created with Sketch.</desc>
    <g id="assets" stroke="none" stroke-width="1" fill="none" fill-rule="evenodd">
        <g id="styleguide" transform="translate(-587.000000, -855.000000)" fill="#FFFFFF">
            <g id="Icon/Big/NoSun" transform="translate(581.000000, 849.000000)">
                <path d="M10.7048,18.5961 L12.3698,19.7041 C9.5108,24.0001 7.9998,29.0121 7.9998,34.1961 C7.9998,48.6411 19.7518,60.3921 34.1958,60.3921 C39.6668,60.3921 44.9058,58.7241 49.3498,55.5671 L50.5078,57.1981 C45.7248,60.5961 40.0838,62.3921 34.1958,62.3921 C18.6488,62.3921 5.9998,49.7441 5.9998,34.1961 C5.9998,28.6171 7.6268,23.2221 10.7048,18.5961 Z M8.5959,7.1824 L61.2099,59.7964 C61.6009,60.1874 61.6009,60.8194 61.2099,61.2104 C61.0149,61.4054 60.7589,61.5034 60.5029,61.5034 C60.2469,61.5034 59.9909,61.4054 59.7959,61.2104 L7.1819,8.5964 C6.7909,8.2054 6.7909,7.5724 7.1819,7.1824 C7.5719,6.7914 8.2049,6.7914 8.5959,7.1824 Z M34.1957,5.9997 C49.7427,5.9997 62.3917,18.6487 62.3917,34.1967 C62.3917,39.9407 60.6757,45.4677 57.4277,50.1787 L55.7817,49.0437 C58.7977,44.6677 60.3917,39.5327 60.3917,34.1967 C60.3917,19.7517 48.6407,7.9997 34.1957,7.9997 C29.3267,7.9997 24.5747,9.3447 20.4537,11.8897 L19.4027,10.1877 C23.8397,7.4487 28.9557,5.9997 34.1957,5.9997 Z" id="Combined-Shape"></path>
            </g>
        </g>
    </g>
</svg>