<svg width="28" height="21" viewBox="0 0 28 21" fill="none" xmlns="http://www.w3.org/2000/svg">
<path fill-rule="evenodd" clip-rule="evenodd" d="M7.96135 3.43621C7.89121 3.43621 7.82107 3.4101 7.7662 3.35788C7.65307 3.24976 7.64882 3.07012 7.75658 2.95689C9.39303 1.23291 11.6005 0.283936 13.9723 0.283936C16.2652 0.283936 18.4206 1.17956 20.0418 2.80621C20.1524 2.91717 20.1524 3.0968 20.0418 3.20748C19.9315 3.31844 19.7525 3.31844 19.6419 3.20748C18.1276 1.6881 16.1142 0.851503 13.9723 0.851503C11.7569 0.851503 9.6948 1.73833 8.16612 3.34795C8.1104 3.40669 8.03601 3.43621 7.96135 3.43621ZM5.94355 2.97257C5.8703 2.97257 5.78686 2.99357 5.70711 3.06111C4.50339 4.08017 3.24283 6.92792 2.02385 9.68175L2.02383 9.68179C1.82896 10.1222 1.63523 10.5598 1.44347 10.9858C0.548035 12.9751 0.33959 14.4851 0.805974 15.6021C1.35919 16.9265 2.80925 17.5559 4.24715 18.0872C4.74549 18.2711 5.28145 18.2015 5.71814 17.8959C6.15793 17.5883 6.41022 17.1033 6.41022 16.5658V3.44706C6.41022 3.22542 6.25777 3.0753 6.12711 3.01457C6.09034 2.99754 6.02303 2.97257 5.94355 2.97257ZM4.80658 18.7563C4.55402 18.7563 4.29947 18.7112 4.05171 18.6198C2.56517 18.0704 0.925331 17.3561 0.284442 15.8212C-0.246144 14.5512 -0.0357195 12.8931 0.927876 10.7525C1.11907 10.3271 1.31224 9.89093 1.50683 9.45135C2.75184 6.63877 4.03927 3.73084 5.34226 2.6272C5.62622 2.38712 6.01794 2.33802 6.36553 2.49978C6.73632 2.67261 6.97588 3.04436 6.97588 3.44705V16.5658C6.97588 17.2809 6.62658 17.9521 6.04169 18.3616C5.66836 18.6227 5.24101 18.7563 4.80658 18.7563ZM21.8597 2.97257C21.7802 2.97257 21.7129 2.99754 21.6761 3.01457C21.5455 3.0753 21.393 3.22542 21.393 3.44706V16.5658C21.393 17.1033 21.6453 17.5883 22.0851 17.8959C22.5218 18.2015 23.058 18.2711 23.5561 18.0872C24.994 17.5559 26.444 16.9265 26.9973 15.6021C27.4636 14.4851 27.2552 12.9751 26.36 10.9858C26.168 10.5598 25.9743 10.1222 25.7794 9.68179L25.7794 9.68176C24.5604 6.92793 23.2998 4.08017 22.0961 3.06111C22.0164 2.99357 21.9329 2.97257 21.8597 2.97257ZM22.9967 18.7563C22.5622 18.7563 22.1352 18.6227 21.7615 18.3616C21.1767 17.9521 20.8274 17.2809 20.8274 16.5658V3.44705C20.8274 3.04436 21.0669 2.67261 21.4377 2.49978C21.7847 2.33802 22.1767 2.38712 22.461 2.6272C23.764 3.73084 25.0514 6.63877 26.2964 9.45135C26.491 9.89093 26.6842 10.3271 26.8754 10.7525C27.839 12.8931 28.0494 14.5512 27.5188 15.8212C26.8779 17.3561 25.2381 18.0704 23.7515 18.6198C23.5038 18.7112 23.2489 18.7563 22.9967 18.7563ZM13.9017 16.1295C14.9875 16.1295 15.8677 15.5406 15.8677 14.8144C15.8677 14.0879 14.9875 13.4991 13.9017 13.4991C12.8157 13.4991 11.9358 14.0879 11.9358 14.8144C11.9358 15.5406 12.8157 16.1295 13.9017 16.1295ZM10.4065 10.4308C10.4065 10.7937 10.1133 11.088 9.75123 11.088C9.38921 11.088 9.09592 10.7937 9.09592 10.4308C9.09592 10.0675 9.38921 9.77324 9.75123 9.77324C10.1133 9.77324 10.4065 10.0675 10.4065 10.4308ZM18.0521 11.088C18.4139 11.088 18.7074 10.7937 18.7074 10.4308C18.7074 10.0675 18.4139 9.77324 18.0521 9.77324C17.6901 9.77324 17.3968 10.0675 17.3968 10.4308C17.3968 10.7937 17.6901 11.088 18.0521 11.088ZM7.7615 18.4478C9.38267 20.0748 11.5384 20.9707 13.831 20.9707C16.2028 20.9707 18.4103 20.0214 20.0467 18.2977C20.1545 18.1845 20.1502 18.0048 20.0371 17.8967C19.924 17.7886 19.7452 17.7926 19.6372 17.9064C18.1085 19.5163 16.0464 20.4031 13.831 20.4031C11.6894 20.4031 9.67596 19.5662 8.16142 18.0466C8.05083 17.9359 7.8718 17.9359 7.7615 18.0466C7.65091 18.1575 7.65091 18.3372 7.7615 18.4478Z" fill="#6E6E6E"/>
</svg>
