<?xml version="1.0" encoding="UTF-8"?>
<svg width="23px" height="24px" viewBox="0 0 23 24" version="1.1" xmlns="http://www.w3.org/2000/svg" xmlns:xlink="http://www.w3.org/1999/xlink">
    <!-- Generator: Sketch 58 (84663) - https://sketch.com -->
    <title>Icon/Big/Toxic</title>
    <desc>Created with Sketch.</desc>
    <g id="desktop" stroke="none" stroke-width="1" fill="none" fill-rule="evenodd">
        <g id="6.d.purchase-toxic" transform="translate(-290.000000, -627.000000)" fill="#6E6E6E">
            <g id="Icon/Big/Toxic" transform="translate(290.000000, 627.000000)">
                <path d="M13.4090329,7.10542736e-15 C18.5909329,7.10542736e-15 22.8068329,4.2159 22.8068329,9.39812857 L22.8068329,10.3184571 C22.8068329,14.0737 20.59029,17.4313714 17.1406186,18.9336 L17.1406186,20.9329571 C17.1406186,22.2505286 16.0688186,23.322 14.7515757,23.322 L8.05529,23.322 C6.73771857,23.322 5.66624714,22.2505286 5.66624714,20.9329571 L5.66624714,18.9336 C2.21657571,17.4313714 3.28571427e-05,14.0737 3.28571427e-05,10.3184571 L3.28571427e-05,9.39812857 C3.28571427e-05,4.2159 4.21593286,7.10542736e-15 9.39783286,7.10542736e-15 L13.4090329,7.10542736e-15 Z M13.4090329,0.657142857 L9.39783286,0.657142857 C4.57834714,0.657142857 0.657175714,4.57831429 0.657175714,9.39812857 L0.657175714,10.3184571 C0.657175714,13.8791857 2.80110429,17.0558143 6.11901857,18.4115 C6.24256143,18.4617714 6.32339,18.5823571 6.32339,18.7157571 L6.32339,20.9329571 C6.32339,21.8877857 7.10013286,22.6648571 8.05529,22.6648571 L8.75603286,22.664 L8.75688857,20.4261357 C8.75688857,20.2444357 8.90408857,20.0975643 9.08546,20.0975643 C9.26683143,20.0975643 9.41403143,20.2444357 9.41403143,20.4261357 L9.41303286,22.664 L12.8770329,22.664 L12.8776671,20.4261357 C12.8776671,20.2444357 13.0248671,20.0975643 13.2062386,20.0975643 C13.38761,20.0975643 13.53481,20.2444357 13.53481,20.4261357 L13.5340329,22.664 L14.7515757,22.6648571 C15.7064043,22.6648571 16.4834757,21.8877857 16.4834757,20.9329571 L16.4834757,18.7157571 C16.4834757,18.5823571 16.5643043,18.4617714 16.6878471,18.4115 C20.0057614,17.0558143 22.14969,13.8791857 22.14969,10.3184571 L22.14969,9.39812857 C22.14969,4.57831429 18.2285186,0.657142857 13.4090329,0.657142857 Z M7.02498857,9.27189143 C8.62644571,9.27189143 9.92890286,10.5746771 9.92890286,12.1761343 C9.92890286,13.7775914 8.62644571,15.0803771 7.02498857,15.0803771 C5.42353143,15.0803771 4.12074571,13.7775914 4.12074571,12.1761343 C4.12074571,10.5746771 5.42353143,9.27189143 7.02498857,9.27189143 Z M15.7818443,9.27189143 C17.3833014,9.27189143 18.6857586,10.5746771 18.6857586,12.1761343 C18.6857586,13.7775914 17.3833014,15.0803771 15.7818443,15.0803771 C14.1803871,15.0803771 12.8776014,13.7775914 12.8776014,12.1761343 C12.8776014,10.5746771 14.1803871,9.27189143 15.7818443,9.27189143 Z M7.02498857,9.92903429 C5.78594571,9.92903429 4.77788857,10.9370914 4.77788857,12.1761343 C4.77788857,13.4148486 5.78594571,14.4232343 7.02498857,14.4232343 C8.26403143,14.4232343 9.27176,13.4148486 9.27176,12.1761343 C9.27176,10.9370914 8.26403143,9.92903429 7.02498857,9.92903429 Z M15.7818443,9.92903429 C14.5428014,9.92903429 13.5347443,10.9370914 13.5347443,12.1761343 C13.5347443,13.4148486 14.5428014,14.4232343 15.7818443,14.4232343 C17.0208871,14.4232343 18.0286157,13.4148486 18.0286157,12.1761343 C18.0286157,10.9370914 17.0208871,9.92903429 15.7818443,9.92903429 Z" id="Combined-Shape"></path>
            </g>
        </g>
    </g>
</svg>