<svg width="45" height="34" viewBox="0 0 45 34" fill="none" xmlns="http://www.w3.org/2000/svg">
<path fill-rule="evenodd" clip-rule="evenodd" d="M12.795 5.56339C12.6823 5.56339 12.5696 5.52112 12.4814 5.43658C12.2996 5.26153 12.2927 4.97069 12.4659 4.78736C15.0959 1.99615 18.6437 0.459717 22.4555 0.459717C26.1405 0.459717 29.6046 1.90977 32.21 4.54339C32.3877 4.72304 32.3877 5.01388 32.21 5.19307C32.0327 5.37272 31.745 5.37272 31.5673 5.19307C29.1337 2.73312 25.8977 1.37864 22.4555 1.37864C18.895 1.37864 15.5809 2.81445 13.1241 5.4205C13.0346 5.51561 12.915 5.56339 12.795 5.56339ZM9.55215 4.81274C9.43442 4.81274 9.30033 4.84674 9.17214 4.95609C7.23761 6.606 5.21171 11.2166 3.25263 15.6752L3.25262 15.6752L3.2526 15.6753C2.93942 16.3884 2.62805 17.0968 2.31987 17.7865C0.880782 21.0073 0.545782 23.4521 1.29533 25.2605C2.18442 27.4048 4.51487 28.4239 6.82578 29.284C7.62669 29.5817 8.48805 29.4692 9.18987 28.9743C9.89669 28.4763 10.3021 27.6911 10.3021 26.8208V5.58095C10.3021 5.22211 10.0571 4.97906 9.84715 4.88073C9.78805 4.85317 9.67987 4.81274 9.55215 4.81274ZM7.72487 30.3674C7.31897 30.3674 6.90987 30.2944 6.51169 30.1464C4.1226 29.2569 1.48715 28.1004 0.457148 25.6152C-0.395579 23.5591 -0.0573976 20.8745 1.49124 17.4088C1.79851 16.7201 2.10897 16.0139 2.42169 15.3022C4.4226 10.7485 6.49169 6.04041 8.58578 4.25357C9.04215 3.86487 9.67169 3.78538 10.2303 4.04727C10.8262 4.32708 11.2112 4.92898 11.2112 5.58095V26.8208C11.2112 27.9787 10.6499 29.0653 9.70987 29.7283C9.10987 30.151 8.42306 30.3674 7.72487 30.3674ZM35.1316 4.81274C35.0039 4.81274 34.8957 4.85317 34.8366 4.88073C34.6266 4.97906 34.3816 5.22211 34.3816 5.58095V26.8208C34.3816 27.6911 34.7871 28.4763 35.4939 28.9743C36.1957 29.4692 37.0576 29.5817 37.858 29.284C40.1689 28.4239 42.4994 27.4048 43.3885 25.2605C44.138 23.4521 43.803 21.0073 42.3644 17.7865C42.0557 17.0968 41.7444 16.3884 41.4312 15.6753L41.4311 15.6752C39.4721 11.2166 37.4462 6.60599 35.5116 4.95609C35.3835 4.84674 35.2494 4.81274 35.1316 4.81274ZM36.9589 30.3674C36.2607 30.3674 35.5744 30.151 34.9739 29.7283C34.0339 29.0653 33.4726 27.9787 33.4726 26.8208V5.58095C33.4726 4.92898 33.8576 4.32708 34.4535 4.04727C35.0112 3.78538 35.6412 3.86487 36.098 4.25357C38.1921 6.04041 40.2612 10.7485 42.2621 15.3022C42.5748 16.0139 42.8853 16.7201 43.1926 17.4088C44.7412 20.8745 45.0794 23.5591 44.2267 25.6152C43.1967 28.1004 40.5612 29.2569 38.1721 30.1464C37.7739 30.2944 37.3644 30.3674 36.9589 30.3674ZM22.3421 26.1144C24.0871 26.1144 25.5017 25.161 25.5017 23.9853C25.5017 22.8091 24.0871 21.8557 22.3421 21.8557C20.5966 21.8557 19.1826 22.8091 19.1826 23.9853C19.1826 25.161 20.5966 26.1144 22.3421 26.1144ZM16.7248 16.8879C16.7248 17.4756 16.2534 17.952 15.6716 17.952C15.0898 17.952 14.6184 17.4756 14.6184 16.8879C14.6184 16.2998 15.0898 15.8234 15.6716 15.8234C16.2534 15.8234 16.7248 16.2998 16.7248 16.8879ZM29.0123 17.952C29.5937 17.952 30.0655 17.4756 30.0655 16.8879C30.0655 16.2998 29.5937 15.8234 29.0123 15.8234C28.4305 15.8234 27.9592 16.2998 27.9592 16.8879C27.9592 17.4756 28.4305 17.952 29.0123 17.952ZM12.4738 29.8679C15.0793 32.502 18.5438 33.9525 22.2284 33.9525C26.0402 33.9525 29.5879 32.4156 32.2179 29.6249C32.3911 29.4416 32.3843 29.1507 32.2025 28.9757C32.0207 28.8006 31.7334 28.807 31.5597 28.9913C29.1029 31.5978 25.7888 33.0336 22.2284 33.0336C18.7866 33.0336 15.5507 31.6787 13.1166 29.2183C12.9388 29.0391 12.6511 29.0391 12.4738 29.2183C12.2961 29.3979 12.2961 29.6887 12.4738 29.8679Z" fill="#7BAF9E"/>
</svg>
