<?xml version="1.0" encoding="UTF-8"?>
<svg width="292px" height="35px" viewBox="0 0 292 35" version="1.1" xmlns="http://www.w3.org/2000/svg" xmlns:xlink="http://www.w3.org/1999/xlink">
    <!-- Generator: Sketch 56 (81588) - https://sketch.com -->
    <title>logo/green</title>
    <desc>Created with Sketch.</desc>
    <g id="assets" stroke="none" stroke-width="1" fill="none" fill-rule="evenodd">
        <g id="styleguide" transform="translate(-908.000000, -736.000000)">
            <g id="logo/green" transform="translate(908.000000, 736.000000)">
                <g id="Group-45">
                    <path d="M10.6525335,22.4151947 C12.7506883,22.4151947 14.6645288,21.3703167 15.7687322,20.2127558 L15.7687322,12.7466583 C14.70156,11.5890974 12.7877196,10.4690974 10.6525335,10.4690974 C6.78782139,10.4690974 4.32187923,13.0821461 4.32187923,16.479707 C4.32187923,19.839707 6.78782139,22.4151947 10.6525335,22.4151947 M9.62155082,7.07153646 C12.3458698,7.07153646 14.4069935,8.00543889 15.7687322,9.38665838 L15.7687322,7.40787792 L19.5964131,7.40787792 L19.5964131,24.8421459 C19.5964131,31.0764141 15.6584802,34.3245848 10.2847462,34.3245848 C6.49409654,34.3245848 4.21162721,32.9433653 2.99717174,32.3082434 L3.84383993,28.8364141 C5.05829541,29.6200727 7.30373352,30.8903165 10.2847462,30.8903165 C13.192538,30.8903165 15.7687322,29.3972678 15.7687322,25.6266581 L15.7687322,23.5351947 C14.3699623,24.8421459 12.2347762,25.8127557 9.62155082,25.8127557 C4.10137519,25.8127557 0.420977565,21.5939752 0.420977565,16.479707 C0.420977565,11.2911705 4.10137519,7.07153646 9.62155082,7.07153646" id="Fill-1" fill="#15573F"></path>
                    <path d="M10.6525335,22.4151947 C12.7506883,22.4151947 14.6645288,21.3703167 15.7687322,20.2127558 L15.7687322,12.7466583 C14.70156,11.5890974 12.7877196,10.4690974 10.6525335,10.4690974 C6.78782139,10.4690974 4.32187923,13.0821461 4.32187923,16.479707 C4.32187923,19.839707 6.78782139,22.4151947 10.6525335,22.4151947 Z M9.62155082,7.07153646 C12.3458698,7.07153646 14.4069935,8.00543889 15.7687322,9.38665838 L15.7687322,7.40787792 L19.5964131,7.40787792 L19.5964131,24.8421459 C19.5964131,31.0764141 15.6584802,34.3245848 10.2847462,34.3245848 C6.49409654,34.3245848 4.21162721,32.9433653 2.99717174,32.3082434 L3.84383993,28.8364141 C5.05829541,29.6200727 7.30373352,30.8903165 10.2847462,30.8903165 C13.192538,30.8903165 15.7687322,29.3972678 15.7687322,25.6266581 L15.7687322,23.5351947 C14.3699623,24.8421459 12.2347762,25.8127557 9.62155082,25.8127557 C4.10137519,25.8127557 0.420977565,21.5939752 0.420977565,16.479707 C0.420977565,11.2911705 4.10137519,7.07153646 9.62155082,7.07153646 Z" id="Stroke-3" stroke="#15573F" stroke-width="0.840000019"></path>
                    <path d="M30.4856938,12.5973534 C30.4856938,11.2536949 30.1540961,10.3949145 28.9404823,10.3949145 C28.1670349,10.3949145 27.3573979,10.7304023 26.878517,11.0291827 L26.6209817,8.00552425 C27.0266419,7.63247548 28.6821054,7.07162183 30.3754418,7.07162183 C32.5838487,7.07162183 33.871525,8.1549145 34.2031227,10.4324754 C35.1970741,8.37942669 36.6320336,7.07162183 39.2090694,7.07162183 C41.0118162,7.07162183 42.3003341,7.74345109 42.7051526,8.416134 L42.0057676,11.8504022 C41.6009491,11.216134 40.3494624,10.656134 38.656126,10.656134 C35.9334903,10.656134 34.8292868,13.1940608 34.3133747,15.8079631 L34.3133747,26.932841 L30.4856938,26.932841 L30.4856938,12.5973534 Z" id="Fill-5" fill="#15573F"></path>
                    <path d="M30.4856938,12.5973534 C30.4856938,11.2536949 30.1540961,10.3949145 28.9404823,10.3949145 C28.1670349,10.3949145 27.3573979,10.7304023 26.878517,11.0291827 L26.6209817,8.00552425 C27.0266419,7.63247548 28.6821054,7.07162183 30.3754418,7.07162183 C32.5838487,7.07162183 33.871525,8.1549145 34.2031227,10.4324754 C35.1970741,8.37942669 36.6320336,7.07162183 39.2090694,7.07162183 C41.0118162,7.07162183 42.3003341,7.74345109 42.7051526,8.416134 L42.0057676,11.8504022 C41.6009491,11.216134 40.3494624,10.656134 38.656126,10.656134 C35.9334903,10.656134 34.8292868,13.1940608 34.3133747,15.8079631 L34.3133747,26.932841 L30.4856938,26.932841 L30.4856938,12.5973534 Z" id="Stroke-7" stroke="#15573F" stroke-width="0.840000019"></path>
                    <path d="M62.9081201,14.3896949 C62.9081201,12.1496949 61.3990981,10.1333535 57.9392046,10.1333535 C54.3328694,10.1333535 52.2338729,12.597012 51.940148,15.4345729 L62.8340577,15.4345729 C62.8710889,15.1357924 62.9081201,14.7260363 62.9081201,14.3896949 L62.9081201,14.3896949 Z M66.3309825,24.8043288 C64.3439212,26.4476215 61.582571,27.4557922 58.3440231,27.4557922 C51.0934798,27.4557922 47.9281527,22.901524 47.9281527,17.2264021 C47.9281527,11.4778657 51.8290544,6.88518281 58.013267,6.88518281 C63.8650403,6.88518281 66.5885177,10.5439632 66.5885177,15.0239632 C66.5885177,16.1815241 66.4042033,17.7496948 66.1836992,18.4590851 L51.8660856,18.4590851 C52.2338729,21.8557923 54.2588069,24.1700606 58.4542751,24.1700606 C61.1045317,24.1700606 63.3491282,23.1243289 64.8219605,22.0051826 L66.3309825,24.8043288 Z" id="Fill-9" fill="#15573F"></path>
                    <path d="M62.9081201,14.3896949 C62.9081201,12.1496949 61.3990981,10.1333535 57.9392046,10.1333535 C54.3328694,10.1333535 52.2338729,12.597012 51.940148,15.4345729 L62.8340577,15.4345729 C62.8710889,15.1357924 62.9081201,14.7260363 62.9081201,14.3896949 Z M66.3309825,24.8043288 C64.3439212,26.4476215 61.582571,27.4557922 58.3440231,27.4557922 C51.0934798,27.4557922 47.9281527,22.901524 47.9281527,17.2264021 C47.9281527,11.4778657 51.8290544,6.88518281 58.013267,6.88518281 C63.8650403,6.88518281 66.5885177,10.5439632 66.5885177,15.0239632 C66.5885177,16.1815241 66.4042033,17.7496948 66.1836992,18.4590851 L51.8660856,18.4590851 C52.2338729,21.8557923 54.2588069,24.1700606 58.4542751,24.1700606 C61.1045317,24.1700606 63.3491282,23.1243289 64.8219605,22.0051826 L66.3309825,24.8043288 Z" id="Stroke-11" stroke="#15573F" stroke-width="0.840000019"></path>
                    <path d="M88.3358551,14.3896949 C88.3358551,12.1496949 86.8268332,10.1333535 83.3669396,10.1333535 C79.7606044,10.1333535 77.6616079,12.597012 77.3678831,15.4345729 L88.2617927,15.4345729 C88.2988239,15.1357924 88.3358551,14.7260363 88.3358551,14.3896949 L88.3358551,14.3896949 Z M91.7587175,24.8043288 C89.7716563,26.4476215 87.010306,27.4557922 83.7717581,27.4557922 C76.5212149,27.4557922 73.3558878,22.901524 73.3558878,17.2264021 C73.3558878,11.4778657 77.2567894,6.88518281 83.441002,6.88518281 C89.2927754,6.88518281 92.0162528,10.5439632 92.0162528,15.0239632 C92.0162528,16.1815241 91.8319383,17.7496948 91.6114343,18.4590851 L77.2938206,18.4590851 C77.6616079,21.8557923 79.686542,24.1700606 83.8820101,24.1700606 C86.5322667,24.1700606 88.7768632,23.1243289 90.2496956,22.0051826 L91.7587175,24.8043288 Z" id="Fill-13" fill="#15573F"></path>
                    <path d="M88.3358551,14.3896949 C88.3358551,12.1496949 86.8268332,10.1333535 83.3669396,10.1333535 C79.7606044,10.1333535 77.6616079,12.597012 77.3678831,15.4345729 L88.2617927,15.4345729 C88.2988239,15.1357924 88.3358551,14.7260363 88.3358551,14.3896949 Z M91.7587175,24.8043288 C89.7716563,26.4476215 87.010306,27.4557922 83.7717581,27.4557922 C76.5212149,27.4557922 73.3558878,22.901524 73.3558878,17.2264021 C73.3558878,11.4778657 77.2567894,6.88518281 83.441002,6.88518281 C89.2927754,6.88518281 92.0162528,10.5439632 92.0162528,15.0239632 C92.0162528,16.1815241 91.8319383,17.7496948 91.6114343,18.4590851 L77.2938206,18.4590851 C77.6616079,21.8557923 79.686542,24.1700606 83.8820101,24.1700606 C86.5322667,24.1700606 88.7768632,23.1243289 90.2496956,22.0051826 L91.7587175,24.8043288 Z" id="Stroke-15" stroke="#15573F" stroke-width="0.840000019"></path>
                    <path d="M103.973211,7.40779256 L103.973211,10.3947437 C105.334949,8.37925595 107.617419,7.0714511 110.598431,7.0714511 C115.566505,7.0714511 117.848975,10.8420608 117.848975,15.6959631 L117.848975,21.7808411 C117.848975,23.0877923 118.216762,23.9832801 119.395028,23.9832801 C120.057382,23.9832801 120.755925,23.7220606 121.41912,23.3114508 L121.676656,26.4102313 C120.792956,26.8951093 119.395028,27.3065727 117.959227,27.3065727 C115.346001,27.3065727 114.021294,25.8502313 114.021294,22.6396216 L114.021294,16.2926705 C114.021294,12.9710851 112.438209,10.6559632 109.272882,10.6559632 C106.549405,10.6559632 104.635564,12.746573 103.973211,14.8747436 L103.973211,26.9326703 L100.14553,26.9326703 L100.14553,7.40779256 L103.973211,7.40779256 Z" id="Fill-17" fill="#15573F"></path>
                    <path d="M103.973211,7.40779256 L103.973211,10.3947437 C105.334949,8.37925595 107.617419,7.0714511 110.598431,7.0714511 C115.566505,7.0714511 117.848975,10.8420608 117.848975,15.6959631 L117.848975,21.7808411 C117.848975,23.0877923 118.216762,23.9832801 119.395028,23.9832801 C120.057382,23.9832801 120.755925,23.7220606 121.41912,23.3114508 L121.676656,26.4102313 C120.792956,26.8951093 119.395028,27.3065727 117.959227,27.3065727 C115.346001,27.3065727 114.021294,25.8502313 114.021294,22.6396216 L114.021294,16.2926705 C114.021294,12.9710851 112.438209,10.6559632 109.272882,10.6559632 C106.549405,10.6559632 104.635564,12.746573 103.973211,14.8747436 L103.973211,26.9326703 L100.14553,26.9326703 L100.14553,7.40779256 L103.973211,7.40779256 Z" id="Stroke-19" stroke="#15573F" stroke-width="0.840000019"></path>
                    <path d="M145.703517,2.44342679 L145.703517,7.40745109 L153.211595,7.40745109 L153.211595,10.4686706 L145.703517,10.4686706 L145.703517,20.1756216 C145.703517,22.7144021 146.80772,23.909524 148.794781,23.909524 C150.267614,23.909524 151.99714,23.1992801 153.064312,22.4156216 L154.315799,25.4392801 C152.586273,26.5217191 150.303803,27.3062312 147.654388,27.3062312 C144.084243,27.3062312 141.875836,25.1037923 141.875836,20.9217192 L141.875836,10.4686706 L138.268659,10.4686706 L138.268659,7.40745109 L141.875836,7.40745109 L142.317685,2.44342679 L145.703517,2.44342679 Z" id="Fill-21" fill="#1A825A"></path>
                    <path d="M145.703517,2.44342679 L145.703517,7.40745109 L153.211595,7.40745109 L153.211595,10.4686706 L145.703517,10.4686706 L145.703517,20.1756216 C145.703517,22.7144021 146.80772,23.909524 148.794781,23.909524 C150.267614,23.909524 151.99714,23.1992801 153.064312,22.4156216 L154.315799,25.4392801 C152.586273,26.5217191 150.303803,27.3062312 147.654388,27.3062312 C144.084243,27.3062312 141.875836,25.1037923 141.875836,20.9217192 L141.875836,10.4686706 L138.268659,10.4686706 L138.268659,7.40745109 L141.875836,7.40745109 L142.317685,2.44342679 L145.703517,2.44342679 Z" id="Stroke-23" stroke="#1A825A" stroke-width="0.840000019"></path>
                    <path d="M165.280236,0.426829261 L165.280236,10.3574388 C166.641975,8.3043901 168.924444,7.0717072 171.905456,7.0717072 C176.87353,7.0717072 179.156,10.8423169 179.156,15.6962192 L179.156,21.7810972 C179.156,23.0880484 179.523787,23.9835362 180.702053,23.9835362 C181.364407,23.9835362 181.989729,23.7223167 182.726145,23.3117069 L182.983681,26.4096337 C182.137012,26.8953654 180.738242,27.3059751 179.266252,27.3059751 C176.653026,27.3059751 175.328319,25.8496337 175.328319,22.6398777 L175.328319,16.2929266 C175.328319,12.9704876 173.745234,10.6553657 170.579907,10.6553657 C167.85643,10.6553657 165.94259,12.7468291 165.280236,14.8749997 L165.280236,26.9329264 L161.452555,26.9329264 L161.452555,0.426829261 L165.280236,0.426829261 Z" id="Fill-25" fill="#1A825A"></path>
                    <path d="M165.280236,0.426829261 L165.280236,10.3574388 C166.641975,8.3043901 168.924444,7.0717072 171.905456,7.0717072 C176.87353,7.0717072 179.156,10.8423169 179.156,15.6962192 L179.156,21.7810972 C179.156,23.0880484 179.523787,23.9835362 180.702053,23.9835362 C181.364407,23.9835362 181.989729,23.7223167 182.726145,23.3117069 L182.983681,26.4096337 C182.137012,26.8953654 180.738242,27.3059751 179.266252,27.3059751 C176.653026,27.3059751 175.328319,25.8496337 175.328319,22.6398777 L175.328319,16.2929266 C175.328319,12.9704876 173.745234,10.6553657 170.579907,10.6553657 C167.85643,10.6553657 165.94259,12.7468291 165.280236,14.8749997 L165.280236,26.9329264 L161.452555,26.9329264 L161.452555,0.426829261 L165.280236,0.426829261 Z" id="Stroke-27" stroke="#1A825A" stroke-width="0.840000019"></path>
                    <path d="M207.086203,7.40779256 L207.086203,21.7808411 C207.086203,23.0877923 207.417801,23.9832801 208.595225,23.9832801 C209.29461,23.9832801 209.956964,23.7220606 210.656349,23.3114508 L210.950915,26.4102313 C210.067216,26.8951093 208.595225,27.3065727 207.196455,27.3065727 C205.0983,27.3065727 203.846814,26.3726703 203.404964,24.3563289 C201.970004,26.260841 199.614314,27.3065727 196.633302,27.3065727 C191.664386,27.3065727 189.41979,23.8338898 189.41979,18.7196216 L189.41979,7.40779256 L193.24747,7.40779256 L193.24747,18.1596216 C193.24747,21.7432801 194.498116,23.7220606 197.99504,23.7220606 C200.755549,23.7220606 202.485075,21.9677923 203.258522,20.2502314 L203.258522,7.40779256 L207.086203,7.40779256 Z" id="Fill-29" fill="#1A825A"></path>
                    <path d="M207.086203,7.40779256 L207.086203,21.7808411 C207.086203,23.0877923 207.417801,23.9832801 208.595225,23.9832801 C209.29461,23.9832801 209.956964,23.7220606 210.656349,23.3114508 L210.950915,26.4102313 C210.067216,26.8951093 208.595225,27.3065727 207.196455,27.3065727 C205.0983,27.3065727 203.846814,26.3726703 203.404964,24.3563289 C201.970004,26.260841 199.614314,27.3065727 196.633302,27.3065727 C191.664386,27.3065727 189.41979,23.8338898 189.41979,18.7196216 L189.41979,7.40779256 L193.24747,7.40779256 L193.24747,18.1596216 C193.24747,21.7432801 194.498116,23.7220606 197.99504,23.7220606 C200.755549,23.7220606 202.485075,21.9677923 203.258522,20.2502314 L203.258522,7.40779256 L207.086203,7.40779256 Z" id="Stroke-31" stroke="#1A825A" stroke-width="0.840000019"></path>
                    <path d="M221.803417,7.40779256 L221.803417,10.3196218 C223.128125,8.34169498 225.2995,7.03474378 228.244324,7.03474378 C231.704217,7.03474378 233.691278,8.41596327 234.648199,11.104134 C235.863496,8.78901205 238.255375,7.0714511 241.641207,7.0714511 C246.610122,7.0714511 248.671246,10.8420608 248.671246,15.6959631 L248.671246,21.7808411 C248.671246,23.0877923 249.039033,23.9832801 250.180268,23.9832801 C250.842621,23.9832801 251.542006,23.7220606 252.241391,23.3114508 L252.535958,26.4102313 C251.68929,26.8951093 250.143236,27.3065727 248.781498,27.3065727 C246.205304,27.3065727 244.843565,25.8502313 244.843565,22.6396216 L244.843565,16.2926705 C244.843565,12.9710851 243.407764,10.6559632 240.243278,10.6559632 C237.593022,10.6559632 235.899685,12.5596217 235.274363,14.6877924 L235.274363,26.9326703 L231.446682,26.9326703 L231.446682,16.2559631 C231.446682,12.9335242 230.047912,10.6559632 226.882585,10.6559632 C224.159107,10.6559632 222.465771,12.5971827 221.803417,14.7253534 L221.803417,26.9326703 L217.975736,26.9326703 L217.975736,7.40779256 L221.803417,7.40779256 Z" id="Fill-33" fill="#1A825A"></path>
                    <path d="M221.803417,7.40779256 L221.803417,10.3196218 C223.128125,8.34169498 225.2995,7.03474378 228.244324,7.03474378 C231.704217,7.03474378 233.691278,8.41596327 234.648199,11.104134 C235.863496,8.78901205 238.255375,7.0714511 241.641207,7.0714511 C246.610122,7.0714511 248.671246,10.8420608 248.671246,15.6959631 L248.671246,21.7808411 C248.671246,23.0877923 249.039033,23.9832801 250.180268,23.9832801 C250.842621,23.9832801 251.542006,23.7220606 252.241391,23.3114508 L252.535958,26.4102313 C251.68929,26.8951093 250.143236,27.3065727 248.781498,27.3065727 C246.205304,27.3065727 244.843565,25.8502313 244.843565,22.6396216 L244.843565,16.2926705 C244.843565,12.9710851 243.407764,10.6559632 240.243278,10.6559632 C237.593022,10.6559632 235.899685,12.5596217 235.274363,14.6877924 L235.274363,26.9326703 L231.446682,26.9326703 L231.446682,16.2559631 C231.446682,12.9335242 230.047912,10.6559632 226.882585,10.6559632 C224.159107,10.6559632 222.465771,12.5971827 221.803417,14.7253534 L221.803417,26.9326703 L217.975736,26.9326703 L217.975736,7.40779256 L221.803417,7.40779256 Z" id="Stroke-35" stroke="#1A825A" stroke-width="0.840000019"></path>
                    <path d="M268.207567,10.469012 C266.072381,10.469012 264.158541,11.589012 263.054337,12.746573 L263.054337,21.7065728 C264.08532,22.7890118 266.036192,23.9090118 268.207567,23.9090118 C272.035248,23.9090118 274.538221,21.1465728 274.538221,17.1514509 C274.538221,13.19389 272.035248,10.469012 268.207567,10.469012 M269.237708,27.3065727 C266.4772,27.3065727 264.416918,26.298402 263.054337,24.8420606 L263.054337,26.9326703 L259.227498,26.9326703 L259.227498,0.426573163 L263.054337,0.426573163 L263.054337,9.42413399 C264.453107,8.0429145 266.588293,7.07230476 269.237708,7.07230476 C274.758725,7.07230476 278.476154,11.2535242 278.476154,17.1514509 C278.476154,23.0502313 274.758725,27.3065727 269.237708,27.3065727" id="Fill-37" fill="#1A825A"></path>
                    <path d="M268.207567,10.469012 C266.072381,10.469012 264.158541,11.589012 263.054337,12.746573 L263.054337,21.7065728 C264.08532,22.7890118 266.036192,23.9090118 268.207567,23.9090118 C272.035248,23.9090118 274.538221,21.1465728 274.538221,17.1514509 C274.538221,13.19389 272.035248,10.469012 268.207567,10.469012 Z M269.237708,27.3065727 C266.4772,27.3065727 264.416918,26.298402 263.054337,24.8420606 L263.054337,26.9326703 L259.227498,26.9326703 L259.227498,0.426573163 L263.054337,0.426573163 L263.054337,9.42413399 C264.453107,8.0429145 266.588293,7.07230476 269.237708,7.07230476 C274.758725,7.07230476 278.476154,11.2535242 278.476154,17.1514509 C278.476154,23.0502313 274.758725,27.3065727 269.237708,27.3065727 Z" id="Stroke-39" stroke="#1A825A" stroke-width="0.840000019"></path>
                    <path d="M288.371484,22.1543167 C290.027789,22.1543167 290.984709,23.0882191 290.984709,24.7682191 C290.984709,26.4849264 290.027789,27.3804142 288.371484,27.3804142 C286.715178,27.3804142 285.795289,26.4849264 285.795289,24.7682191 C285.795289,23.0882191 286.715178,22.1543167 288.371484,22.1543167" id="Fill-41" fill="#1A825A"></path>
                    <path d="M288.371484,22.1543167 C290.027789,22.1543167 290.984709,23.0882191 290.984709,24.7682191 C290.984709,26.4849264 290.027789,27.3804142 288.371484,27.3804142 C286.715178,27.3804142 285.795289,26.4849264 285.795289,24.7682191 C285.795289,23.0882191 286.715178,22.1543167 288.371484,22.1543167 Z" id="Stroke-43" stroke="#1A825A" stroke-width="0.840000019"></path>
                </g>
            </g>
        </g>
    </g>
</svg>